<svg width="96" height="36" viewBox="0 0 96 36" fill="none" xmlns="http://www.w3.org/2000/svg">
<g id="vector">
<g id="Sh&#226;&#136;&#158;p!">
<path d="M26.0175 21.2452C26.4149 19.0027 27.1486 17.7739 28.8606 17.7739C30.3892 17.7739 31.0312 18.9719 30.6643 21.0916L29.1052 30.0004H34.1495L35.8921 19.9857C36.5952 15.9614 34.6998 13.1659 31.2758 13.1659C29.4109 13.1659 27.8212 14.0567 26.5984 15.5313L27.8824 7.94345H23.2661L19.4141 30.0004H24.4583L26.0175 21.2452Z" fill="#1D1D1F"/>
<path d="M68.1409 20.2315C68.1409 16.0535 65.1143 13.1659 60.7731 13.1659C57.716 13.1659 54.7506 14.794 52.6411 17.8046C51.3266 15.0091 48.8503 13.1659 45.8849 13.1659C40.5654 13.1659 36.4994 17.5281 36.4994 23.2727C36.4994 27.4199 39.4954 30.3076 43.8366 30.3076C47.0466 30.3076 49.8591 28.6795 51.9686 25.6382C53.3749 28.5873 56.0651 30.3076 59.0917 30.3076C64.4417 30.3076 68.1409 25.9761 68.1409 20.2315ZM41.8494 22.7505C41.8494 19.8935 43.6226 17.7431 45.9766 17.7431C47.6274 17.7431 48.8197 18.9719 49.9509 21.7675C48.1777 24.2865 46.2517 25.7303 44.6926 25.7303C42.9194 25.7303 41.8494 24.6551 41.8494 22.7505ZM54.72 21.7675C56.5237 19.0334 58.2051 17.7431 59.9783 17.7431C61.7209 17.7431 62.7603 18.8798 62.7603 20.723C62.7603 23.6107 61.0483 25.7303 58.6943 25.7303C57.0434 25.7303 55.7289 24.4094 54.72 21.7675Z" fill="#1D1D1F"/>
<path d="M85.9095 20.0779C85.9095 16.0228 83.4027 13.1966 79.9175 13.1966C77.8998 13.1966 76.0961 14.0875 74.9955 15.5006L75.3318 13.4731H70.7156L66.7718 35.9294H71.8161L73.2835 27.7579C73.9867 29.3553 75.607 30.3076 77.6553 30.3076C82.3021 30.3076 85.9095 25.8532 85.9095 20.0779ZM80.6207 20.6615C80.6207 23.6414 79.0921 25.7303 76.8604 25.7303C75.3624 25.7303 74.2618 24.563 74.2618 22.8119C74.2618 19.7707 75.821 17.7431 78.0221 17.7431C79.5201 17.7431 80.6207 18.9412 80.6207 20.6615Z" fill="#1D1D1F"/>
<path d="M91.4466 22.9041L95.4514 7.94345H88.9703L87.6251 22.9041H91.4466ZM92.2108 26.4062C92.2108 24.9009 91.1408 23.795 89.4288 23.795C87.3194 23.795 85.5157 25.5153 85.5157 27.5735C85.5157 29.1095 86.6468 30.154 88.3283 30.154C90.4377 30.154 92.2108 28.403 92.2108 26.4062Z" fill="#1D1D1F"/>
</g>
</g>
</svg>
